<svg width="35" height="25" viewBox="0 0 35 25" fill="none" xmlns="http://www.w3.org/2000/svg">
<path d="M31 0H4C1.79086 0 0 1.79086 0 4V21C0 23.2091 1.79086 25 4 25H31C33.2091 25 35 23.2091 35 21V4C35 1.79086 33.2091 0 31 0Z" fill="#017ECD"/>
<path d="M17.57 12.47V11.79C17.57 11.53 17.3 11.26 17.04 11.26H16.29V12.47H15.49V9.05H17.46C17.95 9 18.43 9.32 18.48 9.79V10.05C18.48 10.37 18.32 10.68 18 10.85C18.27 11 18.43 11.32 18.37 11.63V12.47H17.57V12.47ZM16.24 10.47H17.09C17.25 10.53 17.46 10.42 17.52 10.27C17.57 10.11 17.46 9.89 17.3 9.84H16.24V10.47V10.47ZM27.62 12.47L26.33 10.16V12.47H24.73L24.46 11.74H22.96L22.7 12.47H21C21 12.47 19.92 12.32 19.92 10.84C19.92 9.05 20.83 9 21.2 9H22.22V9.79H21.42C21.04 9.84 20.78 10.16 20.83 10.53V10.79C20.83 11.95 22.22 11.58 22.27 11.58L23.3 9H24.42L25.65 12.1V9.06H26.77L28.05 11.33V9.05H28.85V12.53L27.63 12.47H27.62ZM23.34 10.89H24.14L23.77 9.89L23.34 10.89ZM11.21 12.47V10.11L10.2 12.47H9.56L8.54 10.11V12.47H6.94L6.67 11.74H5.17L4.91 12.47H4L5.34 9H6.46L7.69 12.16V9.06H8.97L9.87 11.21L10.79 9.05H12.07V12.53L11.21 12.47V12.47ZM5.5 10.9H6.3L5.92 9.9L5.5 10.9ZM12.5 12.48V9.05H15V9.85H13.3V10.37H14.95V11.16H13.3V11.74H15V12.47H12.5V12.48ZM18.8 12.54V9.05H19.6V12.53H18.8V12.54ZM20.56 16.96V16.27C20.56 15.96 20.3 15.75 19.98 15.75H19.12V16.95H18.27V13.54H20.35C20.4729 13.5141 20.6 13.5145 20.7227 13.5412C20.8455 13.5678 20.9612 13.6202 21.0623 13.6948C21.1634 13.7695 21.2475 13.8647 21.3092 13.9741C21.3708 14.0836 21.4086 14.2049 21.42 14.33V14.53C21.42 14.85 21.26 15.17 20.94 15.33C21.2 15.48 21.36 15.8 21.36 16.12V16.96H20.56V16.96ZM19.17 14.96H20.08C20.24 15.01 20.46 14.9 20.51 14.75C20.56 14.59 20.46 14.38 20.3 14.33C20.2703 14.3019 20.2309 14.2862 20.19 14.2862C20.1491 14.2862 20.1097 14.3019 20.08 14.33H19.18V14.96H19.17ZM14.85 16.96H14.1L13.19 15.96L12.29 16.96H9.07V13.54H12.22L13.18 14.64L14.2 13.54H16.92C17.45 13.48 17.94 13.8 17.99 14.33V14.53C17.99 15.53 17.61 15.85 16.49 15.85H15.64V16.95H14.84L14.85 16.96ZM13.78 15.27L14.85 16.48V14.12L13.78 15.27ZM9.93 16.22H11.75L12.6 15.27L11.75 14.33H9.93V14.85H11.69V15.65H9.93V16.22V16.22ZM15.7 14.96H16.61C16.77 15.01 16.98 14.9 17.04 14.75C17.09 14.59 16.98 14.38 16.82 14.33C16.7909 14.3047 16.7536 14.2907 16.715 14.2907C16.6764 14.2907 16.6391 14.3047 16.61 14.33H15.71V14.96H15.7ZM26.44 16.96H24.9V16.16H26.24C26.24 16.16 26.72 16.22 26.72 15.9C26.72 15.59 25.97 15.64 25.97 15.64C25.38 15.74 24.9 15.33 24.79 14.8V14.64C24.74 14.12 25.17 13.64 25.7 13.59H27.52V14.33H26.18C26.18 14.33 25.7 14.23 25.7 14.59C25.7 14.85 26.34 14.85 26.34 14.85C26.34 14.85 27.68 14.75 27.68 15.8C27.711 16.0874 27.6277 16.3754 27.4481 16.6018C27.2684 16.8283 27.0069 16.9749 26.72 17.01H26.5L26.45 16.96H26.44ZM21.84 16.96V13.54H24.52V14.33H22.7V14.85H24.46V15.65H22.7V16.22H24.52V16.96H21.85H21.84ZM29.44 16.96H27.88V16.16H29.22C29.22 16.16 29.7 16.22 29.7 15.9C29.7 15.59 28.95 15.64 28.95 15.64C28.36 15.74 27.88 15.33 27.78 14.74V14.59C27.72 14.06 28.15 13.59 28.68 13.54H30.5V14.33H29.17C29.17 14.33 28.68 14.23 28.68 14.59C28.68 14.85 29.33 14.85 29.33 14.85C29.33 14.85 30.66 14.75 30.66 15.8C30.6883 16.0857 30.6037 16.3712 30.4243 16.5954C30.2449 16.8197 29.985 16.9648 29.7 17H29.49C29.49 16.95 29.49 16.95 29.43 16.95L29.44 16.96Z" fill="white"/>
</svg>
