<svg width="35" height="25" viewBox="0 0 35 25" fill="none" xmlns="http://www.w3.org/2000/svg">
<path d="M31 0H4C1.79086 0 0 1.79086 0 4V21C0 23.2091 1.79086 25 4 25H31C33.2091 25 35 23.2091 35 21V4C35 1.79086 33.2091 0 31 0Z" fill="#353A48"/>
<path d="M12.5 20C16.6421 20 20 16.6421 20 12.5C20 8.35786 16.6421 5 12.5 5C8.35786 5 5 8.35786 5 12.5C5 16.6421 8.35786 20 12.5 20Z" fill="#ED0006"/>
<path d="M22.5 20C26.6421 20 30 16.6421 30 12.5C30 8.35786 26.6421 5 22.5 5C18.3579 5 15 8.35786 15 12.5C15 16.6421 18.3579 20 22.5 20Z" fill="#F9A000"/>
<path fill-rule="evenodd" clip-rule="evenodd" d="M17.5 6.91C18.2893 7.61176 18.921 8.47272 19.3536 9.4362C19.7862 10.3997 20.0099 11.4439 20.0099 12.5C20.0099 13.5561 19.7862 14.6003 19.3536 15.5638C18.921 16.5273 18.2893 17.3882 17.5 18.09C16.7152 17.3927 16.0859 16.5381 15.6531 15.5816C15.2203 14.6251 14.9937 13.5882 14.9881 12.5384C14.9824 11.4886 15.1978 10.4493 15.6202 9.4882C16.0427 8.5271 16.6627 7.66569 17.44 6.96L17.5 6.91Z" fill="#FF5D00"/>
</svg>
