<svg width="103" height="25" viewBox="0 0 103 25" fill="none" xmlns="http://www.w3.org/2000/svg">
<g clip-path="url(#clip0_104_29)">
<path fill-rule="evenodd" clip-rule="evenodd" d="M79.3424 11.0134C79.0354 13.0303 77.495 13.0303 76.0051 13.0303H75.1573L75.752 9.26464C75.7879 9.03712 75.9841 8.86944 76.2147 8.86944H76.6033C77.6172 8.86944 78.5753 8.86944 79.0692 9.44722C79.3647 9.79292 79.4541 10.3053 79.3424 11.0134ZM78.694 5.75151H73.075C72.6909 5.75151 72.3639 6.03106 72.3041 6.4106L70.0321 20.8179C69.9871 21.102 70.2068 21.3591 70.4947 21.3591H73.3775C73.6465 21.3591 73.8755 21.1634 73.9172 20.8977L74.5616 16.8134C74.6215 16.4338 74.9485 16.1543 75.3326 16.1543H77.1106C80.8116 16.1543 82.9475 14.3631 83.5058 10.8134C83.7571 9.26085 83.5159 8.0409 82.7889 7.18686C81.9899 6.24798 80.5737 5.75151 78.694 5.75151Z" fill="#2790C3"/>
<path fill-rule="evenodd" clip-rule="evenodd" d="M39.2674 11.0134C38.9604 13.0303 37.42 13.0303 35.9303 13.0303H35.0826L35.677 9.26464C35.7131 9.03712 35.9093 8.86944 36.1397 8.86944H36.5283C37.5424 8.86944 38.5005 8.86944 38.9942 9.44722C39.2899 9.79292 39.3793 10.3053 39.2674 11.0134ZM38.6192 5.75151H33.0003C32.6162 5.75151 32.2891 6.03106 32.2293 6.4106L29.9571 20.8179C29.9124 21.102 30.1321 21.3591 30.4197 21.3591H33.1025C33.4866 21.3591 33.8139 21.0795 33.8737 20.7002L34.4869 16.8134C34.5465 16.4338 34.8737 16.1543 35.2578 16.1543H37.0359C40.7366 16.1543 42.8727 14.3631 43.4311 10.8134C43.6823 9.26085 43.4412 8.0409 42.7141 7.18686C41.9149 6.24798 40.4987 5.75151 38.6192 5.75151Z" fill="#27346A"/>
<path fill-rule="evenodd" clip-rule="evenodd" d="M51.6634 16.1856C51.4035 17.723 50.1831 18.755 48.6265 18.755C47.8462 18.755 47.2215 18.504 46.82 18.0288C46.422 17.5576 46.2722 16.8864 46.3982 16.1389C46.6407 14.6154 47.8806 13.55 49.4134 13.55C50.1775 13.55 50.7977 13.8035 51.2073 14.2831C51.6195 14.7662 51.7813 15.4419 51.6634 16.1856ZM55.4129 10.949H52.7225C52.4919 10.949 52.2957 11.1164 52.2599 11.3444L52.1414 12.0967L51.9533 11.824C51.3707 10.9783 50.0722 10.6957 48.7755 10.6957C45.803 10.6957 43.2639 12.9482 42.7697 16.1076C42.5124 17.6836 42.8775 19.1896 43.7712 20.2409C44.5922 21.2068 45.7639 21.6088 47.1599 21.6088C49.5558 21.6088 50.8846 20.0697 50.8846 20.0697L50.7644 20.8174C50.7195 21.1018 50.9391 21.3591 51.227 21.3591H53.65C54.0341 21.3591 54.3611 21.0798 54.421 20.7002L55.8755 11.4901C55.9205 11.2058 55.7008 10.949 55.4129 10.949Z" fill="#27346A"/>
<path fill-rule="evenodd" clip-rule="evenodd" d="M91.7381 16.1856C91.4783 17.723 90.2581 18.755 88.7015 18.755C87.921 18.755 87.2965 18.504 86.8947 18.0288C86.4967 17.5576 86.347 16.8864 86.4732 16.1389C86.7154 14.6154 87.9553 13.55 89.4884 13.55C90.2523 13.55 90.8727 13.8035 91.2821 14.2831C91.6942 14.7662 91.8561 15.4419 91.7381 16.1856ZM95.4876 10.949H92.7972C92.5667 10.949 92.3705 11.1164 92.3346 11.3444L92.2162 12.0967L92.0283 11.824C91.4455 10.9783 90.147 10.6957 88.8503 10.6957C85.878 10.6957 83.3386 12.9482 82.8444 16.1076C82.5874 17.6836 82.9525 19.1896 83.846 20.2409C84.6672 21.2068 85.8386 21.6088 87.2346 21.6088C89.6306 21.6088 90.9593 20.0697 90.9593 20.0697L90.8394 20.8174C90.7942 21.1018 91.0139 21.3591 91.302 21.3591H93.7248C94.1088 21.3591 94.4359 21.0798 94.496 20.7002L95.9503 11.4901C95.9952 11.2058 95.7755 10.949 95.4876 10.949Z" fill="#2790C3"/>
<mask id="mask0_104_29" style="mask-type:alpha" maskUnits="userSpaceOnUse" x="0" y="0" width="103" height="25">
<path d="M0.0151515 25H102.185V0.207321H0.0151515V25Z" fill="white"/>
</mask>
<g mask="url(#mask0_104_29)">
<path fill-rule="evenodd" clip-rule="evenodd" d="M69.7424 10.949H67.0381C66.7795 10.949 66.5376 11.0773 66.3924 11.2912L62.6621 16.7854L61.0811 11.5058C60.9823 11.1755 60.6783 10.949 60.3333 10.949H57.675C57.354 10.949 57.128 11.2646 57.2316 11.5684L60.2093 20.3088L57.4086 24.2609C57.1886 24.571 57.4106 25 57.7907 25H60.4924C60.7485 25 60.9881 24.8745 61.1341 24.6639L70.1275 11.6843C70.3427 11.3737 70.1205 10.949 69.7424 10.949Z" fill="#27346A"/>
<path fill-rule="evenodd" clip-rule="evenodd" d="M98.6589 6.14722L96.3528 20.8179C96.3081 21.1023 96.5278 21.3591 96.8154 21.3591H99.1349C99.5189 21.3591 99.846 21.0795 99.9058 20.7002L102.18 6.29292C102.225 6.00858 102.005 5.75151 101.717 5.75151H99.1215C98.8909 5.75151 98.6947 5.91944 98.6589 6.14722Z" fill="#2790C3"/>
<path fill-rule="evenodd" clip-rule="evenodd" d="M10.6444 23.9785L11.3997 19.1891L11.4485 18.9237C11.4849 18.6929 11.603 18.4818 11.7811 18.3298C11.9591 18.1778 12.1861 18.0939 12.4202 18.0939H13.02C14.0197 18.0939 14.9381 17.9871 15.75 17.7765C16.6162 17.552 17.3866 17.2023 18.0396 16.7379C18.7321 16.2455 19.3136 15.6088 19.7684 14.8462C20.2482 14.0417 20.6005 13.073 20.8157 11.9674C21.0058 10.9912 21.0414 10.1172 20.922 9.36944C20.7955 8.57955 20.4912 7.90556 20.0177 7.36566C19.7306 7.03864 19.3631 6.7553 18.9258 6.52348L18.9154 6.51793L18.9152 6.5053C19.0679 5.53081 19.0621 4.71793 18.8977 4.01818C18.7326 3.31692 18.3982 2.68586 17.8748 2.08939C16.7902 0.853536 14.8174 0.226768 12.0116 0.226768H4.30581C4.04823 0.226768 3.79823 0.31894 3.60227 0.486364C3.40631 0.653789 3.27652 0.886364 3.23611 1.14091L0.0275251 21.4876C-0.00176779 21.6732 0.051515 21.8619 0.173737 22.0043C0.29596 22.1475 0.473737 22.2295 0.661616 22.2295H5.44217L5.43788 22.2523L5.1096 24.3341C5.08434 24.496 5.13081 24.6601 5.23712 24.7843C5.34343 24.9088 5.49823 24.9806 5.66187 24.9806H9.67147C9.89647 24.9806 10.1144 24.9 10.2854 24.7538C10.4563 24.6076 10.57 24.4048 10.6051 24.1828L10.6444 23.9785Z" fill="#27346A"/>
<path fill-rule="evenodd" clip-rule="evenodd" d="M7.89748 6.53182C7.94823 6.20934 8.15505 5.94545 8.43359 5.81187C8.56036 5.75126 8.70177 5.71742 8.85 5.71742H14.8902C15.6058 5.71742 16.273 5.76439 16.8831 5.86262C17.0573 5.89066 17.2268 5.92298 17.3917 5.95959C17.5566 5.99621 17.7164 6.03687 17.8712 6.08232C17.9487 6.1048 18.0248 6.12853 18.0998 6.15353C18.3992 6.25303 18.678 6.3702 18.9346 6.50606C19.2371 4.57752 18.9326 3.26515 17.8894 2.07651C16.7409 0.767927 14.6662 0.207321 12.0116 0.207321H4.30581C3.76338 0.207321 3.30152 0.602018 3.21692 1.13788L0.00833332 21.4846C-0.0550505 21.8861 0.255303 22.249 0.661616 22.249H5.41869L7.89748 6.53182Z" fill="#27346A"/>
</g>
<path fill-rule="evenodd" clip-rule="evenodd" d="M18.9346 6.50606C18.9116 6.65328 18.8861 6.80303 18.8558 6.95732C17.8399 12.1747 14.3631 13.9785 9.92273 13.9785H7.66162C7.11919 13.9785 6.66111 14.3735 6.57652 14.9093L5.0904 24.3313C5.0351 24.6823 5.30657 25 5.66187 25H9.67172C10.1462 25 10.5503 24.6548 10.6242 24.1859L10.6636 23.9821L11.4189 19.1922L11.4677 18.9275C11.5417 18.4586 11.9457 18.1134 12.4202 18.1134H13.02C16.9045 18.1134 19.9462 16.5351 20.8351 11.971C21.2063 10.0639 21.0144 8.47197 20.0323 7.35278C19.7354 7.01439 19.3657 6.73434 18.9346 6.50606Z" fill="#2790C3"/>
<path fill-rule="evenodd" clip-rule="evenodd" d="M17.8712 6.08232C17.7164 6.03687 17.5566 5.99621 17.3917 5.95959C17.2268 5.92298 17.0573 5.89065 16.8831 5.86262C16.273 5.76439 15.6058 5.71742 14.8902 5.71742H8.85C8.70177 5.71742 8.56035 5.75126 8.43359 5.81187C8.15505 5.94545 7.94823 6.20934 7.89748 6.53182L6.61364 14.6717L6.57652 14.9093C6.66111 14.3735 7.11919 13.9785 7.66162 13.9785H9.92273C14.3631 13.9785 17.8399 12.1747 18.8558 6.95732C18.8861 6.80303 18.9116 6.65328 18.9346 6.50606C18.678 6.3702 18.3992 6.25303 18.0997 6.15353C18.0247 6.12853 17.9487 6.1048 17.8712 6.08232Z" fill="#1F264F"/>
</g>
<defs>
<clipPath id="clip0_104_29">
<rect width="102.5" height="25" fill="white"/>
</clipPath>
</defs>
</svg>
