<svg width="35" height="25" viewBox="0 0 35 25" fill="none" xmlns="http://www.w3.org/2000/svg">
<g clip-path="url(#clip0_104_3)">
<path d="M4 0H31.05C32.0976 0 33.1023 0.41616 33.8431 1.15693C34.5838 1.8977 35 2.90239 35 3.95V21.05C35 22.0976 34.5838 23.1023 33.8431 23.8431C33.1023 24.5838 32.0976 25 31.05 25H3.95C2.90239 25 1.8977 24.5838 1.15693 23.8431C0.41616 23.1023 0 22.0976 0 21.05L0 4C0 2.93913 0.421427 1.92172 1.17157 1.17157C1.92172 0.421427 2.93913 0 4 0V0Z" fill="#1434CB"/>
<path d="M16.86 7.64L14.86 17.34H12.38L14.38 7.64H16.86ZM27 13.91L28.3 10.25L29 13.91H27ZM29.74 17.34H32L30.05 7.64H28C27.7761 7.6459 27.5596 7.72125 27.3805 7.85562C27.2013 7.98999 27.0684 8.17674 27 8.39L23.39 17.39H25.91L26.41 15.97H29.51L29.81 17.39L29.74 17.34ZM23.4 14.14C23.4 11.6 20 11.44 20 10.33C20.0426 10.097 20.1665 9.88676 20.3496 9.7366C20.5327 9.58644 20.7632 9.50614 21 9.51C21.8199 9.4322 22.6451 9.58822 23.38 9.96L23.81 7.86C23.1021 7.57043 22.3448 7.421 21.58 7.42C19.2 7.42 17.46 8.76 17.46 10.62C17.46 12.05 18.69 12.79 19.56 13.24C20.43 13.69 20.86 13.99 20.78 14.44C20.78 15.1 20.06 15.44 19.34 15.44C18.4656 15.4315 17.6044 15.2264 16.82 14.84L16.38 16.94C17.2264 17.2898 18.1342 17.4666 19.05 17.46C21.72 17.53 23.38 16.19 23.38 14.17L23.4 14.14ZM13.4 7.64L9.5 17.34H6.9L5 9.58C4.98424 9.40431 4.92228 9.23591 4.82042 9.0919C4.71855 8.94789 4.58041 8.83338 4.42 8.76C3.6618 8.36036 2.84497 8.08358 2 7.94L2.07 7.64H6.18C6.45175 7.64382 6.71247 7.7481 6.91189 7.93275C7.11132 8.1174 7.23532 8.36934 7.26 8.64L8.26 14.24L10.86 7.67L13.4 7.64Z" fill="white"/>
</g>
<defs>
<clipPath id="clip0_104_3">
<rect width="35" height="25" fill="white"/>
</clipPath>
</defs>
</svg>
