<svg width="110" height="24" viewBox="0 0 110 24" fill="none" xmlns="http://www.w3.org/2000/svg">
<path d="M2.816 18.024L4.808 4.584C4.856 4.2 5.024 4.032 5.24 4.032C5.456 4.032 5.576 4.176 5.672 4.512L8.96 16.104C9.224 17.016 10.04 17.496 10.904 17.496C11.816 17.496 12.584 17.016 12.848 16.056L16.16 4.536C16.232 4.224 16.376 4.056 16.592 4.056C16.856 4.056 16.952 4.272 17 4.608L18.776 18H21.248L19.208 3.84C18.992 2.424 18.008 1.656 16.736 1.656C15.584 1.656 14.552 2.232 14.216 3.504L11.144 14.664C11.072 14.88 11.048 14.952 10.904 14.952C10.784 14.952 10.736 14.88 10.688 14.664L7.592 3.456C7.232 2.184 6.248 1.632 5.096 1.632C3.8 1.632 2.792 2.376 2.576 3.768L0.32 18.024H2.816ZM29.4421 18.288C31.3621 18.288 32.9221 17.376 33.8101 15.936V18H36.0661V12.096C36.0661 8.592 33.3541 5.952 29.8021 5.952C26.2261 5.952 23.5381 8.736 23.5381 12.096C23.5381 15.504 26.0341 18.288 29.4421 18.288ZM29.8021 16.032C27.6181 16.032 25.9141 14.256 25.9141 12.12C25.9141 9.96 27.6181 8.184 29.8021 8.184C32.0101 8.184 33.6901 9.96 33.6901 12.12C33.6901 14.256 32.0101 16.032 29.8021 16.032ZM44.7736 23.688C48.5176 23.688 51.2536 21.024 51.2536 16.944V12.096C51.2536 8.592 48.5416 5.952 44.9896 5.952C41.4136 5.952 38.7256 8.712 38.7256 12.072C38.7256 15.528 41.3656 18.168 44.7016 18.168C46.6696 18.168 48.1096 17.256 48.8776 16.032V16.968C48.8776 19.728 47.1976 21.504 44.7256 21.504C43.0216 21.504 41.7256 20.688 41.0296 19.416L39.0376 20.496C40.1176 22.584 42.2296 23.688 44.7736 23.688ZM44.9656 15.936C42.8296 15.936 41.0776 14.208 41.0776 12.048C41.0776 9.888 42.8296 8.208 44.9656 8.208C47.1256 8.208 48.8536 9.888 48.8536 12.048C48.8536 14.208 47.1256 15.936 44.9656 15.936ZM60.4891 8.232C62.8411 8.232 64.0411 10.128 64.0411 12.336V18H66.4171V12.048C66.4171 8.64 64.3291 5.952 60.4891 5.952C56.6971 5.952 54.6571 8.64 54.6571 12.072V18H57.0331V12.312C57.0331 10.128 58.1851 8.232 60.4891 8.232ZM75.3652 18.288C78.8932 18.288 81.6052 15.504 81.6052 12.096C81.6052 8.736 78.9172 5.952 75.3652 5.952C71.8372 5.952 69.0772 8.712 69.0772 12.096C69.0772 15.504 71.8132 18.288 75.3652 18.288ZM75.3652 16.032C73.1572 16.032 71.4532 14.256 71.4532 12.12C71.4532 9.96 73.1572 8.184 75.3652 8.184C77.5492 8.184 79.2292 9.96 79.2292 12.12C79.2292 14.256 77.5492 16.032 75.3652 16.032ZM84.7387 0.839999V18H87.1147V0.839999H84.7387ZM92.6413 3.912C93.5053 3.912 94.1773 3.216 94.1773 2.352C94.1773 1.488 93.5053 0.767999 92.6413 0.767999C91.7773 0.767999 91.0813 1.488 91.0813 2.352C91.0813 3.216 91.7773 3.912 92.6413 3.912ZM91.4653 6.24V18H93.8413V6.24H91.4653ZM102.872 18.288C104.792 18.288 106.352 17.376 107.24 15.936V18H109.496V12.096C109.496 8.592 106.784 5.952 103.232 5.952C99.6558 5.952 96.9678 8.736 96.9678 12.096C96.9678 15.504 99.4638 18.288 102.872 18.288ZM103.232 16.032C101.048 16.032 99.3438 14.256 99.3438 12.12C99.3438 9.96 101.048 8.184 103.232 8.184C105.44 8.184 107.12 9.96 107.12 12.12C107.12 14.256 105.44 16.032 103.232 16.032Z" fill="black"/>
</svg>
